# xmcd
#
# Track frame offsets:
#       212
#       15560
#       29587
#       43767
#       59025
#       71302
#       89755
#       103785
#       120977
#       138430
#       145705
#       191475
#       236332
#       255502
#       275650
#       290782
#       305422
#       319007
#       328642
#
# Disc length: 4477 seconds
#
# Revision: 8
# Processed by: cddbd v1.5.2PL0 Copyright (c) Steve Scherf et al.
# Submitted via: FreeDbEdit v0.1
#
DISCID=1c117b13
DTITLE=Jethro Tull - Living in the Past
DYEAR=1972
DGENRE=Rock
TTITLE0=Song for Jeffrey
TTITLE1=Love Story
TTITLE2=Christmas Song
TTITLE3=Living in the Past
TTITLE4=Driving Song
TTITLE5=Sweet Dream
TTITLE6=Singing All Day
TTITLE7=Witches Promise
TTITLE8=Inside
TTITLE9=Just Trying to Be
TTITLE10=By Kind Permission Of
TTITLE11=Dharma for One
TTITLE12=Wond'ring Again
TTITLE13=Locomotive Breath
TTITLE14=Life Is a Long Song
TTITLE15=Up the 'Pool
TTITLE16=Dr. Bogenbroom
TTITLE17=For Later
TTITLE18=Nursie
EXTD=
EXTT0=
EXTT1=
EXTT2=
EXTT3=
EXTT4=
EXTT5=
EXTT6=
EXTT7=
EXTT8=
EXTT9=
EXTT10=
EXTT11=
EXTT12=
EXTT13=
EXTT14=
EXTT15=
EXTT16=
EXTT17=
EXTT18=
PLAYORDER=
